<?xml version="1.0" encoding="UTF-8"?><svg id="Capa_2" xmlns="http://www.w3.org/2000/svg" viewBox="0 0 25.84 50.7"><defs><style>.cls-1{fill:#383d4b;}</style></defs><g id="Capa_1-2"><g><path class="cls-1" d="M24.24,11.11c1.4-1.69,1.94-3.95,1.38-6.09-.54-2.07-2.06-3.73-4.02-4.54-1.94-.8-4.26-.6-6.04,.51-1.17,.73-2.09,1.8-2.63,3.04-.42-.97-1.07-1.84-1.9-2.5C9.32,.17,7.08-.35,4.95,.24,2.89,.81,1.25,2.34,.46,4.31c-.78,1.94-.55,4.27,.58,6.03,.63,.98,1.49,1.77,2.48,2.31-.73,.41-1.38,.94-1.9,1.6-1.35,1.68-1.86,3.9-1.31,6,.54,2.07,2.06,3.73,4.02,4.54,1.92,.79,4.2,.6,5.97-.47,.76-.46,1.42-1.07,1.94-1.77v9.45c0,.23,.11,.38,.26,.47H6.11c-1.33,0-2.69-.07-4.02,0-.99,.05-1.67,.61-1.73,1.62-.05,.87-.25,2.3,.17,3.11,.61,1.18,2.39,.87,3.49,.87H23.6s.09,0,.13-.01c0,0,.02,0,.02,0,1.42-.19,1.53-1.26,1.53-2.44,0-1.01,.25-2.35-.82-2.93-.94-.51-2.57-.22-3.57-.22h-7.76c.15-.09,.26-.24,.26-.47v-9.33c.35,.45,.75,.86,1.2,1.21,1.68,1.3,3.94,1.74,5.99,1.15,2.03-.59,3.64-2.1,4.42-4.05,.78-1.92,.55-4.22-.54-5.97-.57-.93-1.37-1.7-2.3-2.25,.79-.4,1.5-.95,2.07-1.64Zm-1.57,22.21c.62,0,1.23-.19,1.47,.66,.11,.39,0,.97,0,1.38,0,.53,.2,1.68-.62,1.84H2.97c-.26,0-.67,.08-.91,0-.84-.28-.66-2.27-.56-2.91,.22-1.39,1.57-.97,2.65-.97H22.67ZM19.8,2.04s-.02,0-.05,0c.03,0,.05,0,.05,0Zm-5.12,6.3c.08,.03,.16,.08,.23,.11,.28,.14,.55,.31,.8,.49,0,0,0,0,.01,0,0,0,0,0,.01,.01,.06,.05,.11,.09,.17,.14,.13,.11,.25,.23,.37,.35,.11,.11,.2,.24,.31,.35,0,0,0,0,0,0,.01,.02,.03,.04,.04,.05,.04,.06,.08,.12,.12,.18,.18,.26,.32,.54,.46,.83,0,0,0,0,0,.01,0,.01,.01,.03,.02,.06,.03,.08,.06,.16,.09,.24,.05,.14,.09,.28,.12,.43,.04,.16,.11,.35,.1,.52,0,.01,0,.03,0,.04,0,.1,.02,.2,.02,.31,0,.1,0,.21,0,.31,0,.18-.02,.37-.03,.55,0,.01,0,.02,0,.03,0,.03,0,.06-.01,.09-.01,.08-.03,.15-.04,.23-.04,.17-.08,.35-.14,.51-.03,.08-.06,.17-.09,.25,0,.03-.04,.1-.06,.14-.14,.29-.29,.58-.47,.85-.04,.06-.09,.12-.13,.18,0,.01-.01,.02-.02,.03,0,.01-.02,.02-.03,.04-.11,.13-.22,.26-.35,.38-.11,.11-.23,.22-.35,.33-.03,.03-.21,.17-.16,.13-.04,.03-.07,.05-.11,.08-.29,.2-.59,.36-.9,.51,0,0-.01,0-.02,0,0,0-.01,0-.02,0-.09,.03-.19,.07-.28,.1-.17,.06-.34,.1-.51,.14-.07,.02-.15,.03-.23,.05-.06,.01-.38,.09-.12,.02-.17,.05-.37,.03-.55,.04-.13,0-.25,0-.38,0-.1,0-.21-.01-.31-.02,0,0-.03,0-.05,0-.17,0-.36-.06-.52-.1-.17-.04-.34-.09-.51-.15-.07-.02-.14-.05-.21-.08,0,0,0,0,0,0-.03-.01-.07-.03-.1-.05-.29-.14-.57-.3-.83-.48-.04-.03-.23-.18-.15-.11-.04-.03-.07-.06-.11-.09-.13-.11-.26-.23-.38-.35-.12-.12-.23-.25-.34-.39,0,0,0,0-.01-.01,0,0,0-.01-.01-.02-.05-.07-.1-.14-.15-.21-.17-.26-.31-.53-.44-.81-.02-.05-.06-.16-.07-.18-.03-.07-.05-.14-.07-.21-.05-.17-.1-.34-.14-.51-.02-.07-.03-.15-.04-.23,0-.03-.01-.06-.02-.09,0,0,0-.01,0-.02-.01-.18-.03-.37-.03-.55,0-.1,0-.2,0-.3,0-.1,.01-.21,.02-.31,0-.01,0-.03,0-.05,0-.16,.06-.35,.1-.5,.04-.16,.08-.31,.14-.47,.03-.08,.06-.16,.09-.24,0,0,0-.02,0-.02,0,0,0,0,0-.01,.14-.3,.3-.59,.48-.86,.05-.07,.1-.14,.15-.21-.14,.21,0,0,.02-.03,.11-.13,.22-.26,.34-.38,.12-.12,.24-.24,.37-.35,.03-.02,.06-.05,.09-.07,.02-.02,.09-.07,.11-.08,.28-.2,.58-.37,.89-.52,0,0,.02-.01,.04-.02,.06-.03,.14-.05,.2-.08,.16-.06,.33-.11,.5-.15,.17-.04,.34-.08,.52-.11,0,0,.02,0,.02,0,0,0,0,0,.01,0,.1,0,.21-.02,.31-.03,.28-.02,.57-.01,.85,.02,.04,0,.08,0,.12,.01,.07,.01,.14,.02,.22,.04,.16,.03,.32,.07,.47,.11,.15,.04,.31,.1,.46,.15,.03,0,.05,.02,.07,.02Zm-12.65-.94s0,.05,0,.05c0,0,0-.02,0-.05Zm.96,2.27s0,0,0,0c-.02-.03-.04-.06-.06-.08-.06-.08-.11-.16-.17-.24-.12-.19-.23-.38-.33-.58-.03-.05-.08-.17-.08-.18-.03-.07-.05-.13-.08-.2-.07-.21-.14-.43-.18-.66-.02-.1-.04-.2-.06-.3,0-.02,0-.04,0-.05,0-.03,0-.06,0-.07-.02-.24-.03-.47-.02-.71,0-.1,0-.21,.02-.31,0-.05,0-.1,.01-.15,.02-.22,0,.04,0,.04-.05-.03,.12-.6,.14-.67,.05-.19,.12-.38,.19-.57,0,0,0,0,0,0,.01-.03,.03-.07,.05-.1,.05-.11,.11-.22,.17-.33,.1-.17,.2-.34,.31-.5,.03-.04,.1-.13,.12-.16,.06-.07,.12-.15,.19-.22,.13-.15,.27-.28,.42-.42,.07-.07,.15-.13,.22-.19,0,0,0,0,0,0,0,0-.02,.01-.03,.02,.01,0,.02-.02,.03-.02,.03-.02,.08-.06,.06-.04,.03-.02,.06-.04,.09-.06,.16-.11,.33-.22,.5-.31,.09-.05,.17-.09,.26-.14,.04-.02,.09-.04,.13-.06,0,0,.01,0,.02,0,0,0,.01,0,.02,0,.4-.14,.79-.25,1.2-.33,0,0,0,0,0,0,.05,0,.1-.01,.15-.01,.1,0,.21-.01,.31-.02,.22,0,.45,0,.67,.02,.05,0,.1,.01,.14,.01,0,0,0,0,.01,0,.1,.02,.2,.04,.3,.06,.21,.05,.42,.1,.62,.17,.09,.03,.18,.07,.27,.1,0,0,0,0,0,0,.04,.02,.09,.04,.13,.06,.19,.09,.37,.19,.55,.31,.09,.06,.19,.12,.28,.19,.02,.01,.04,.03,.06,.04-.09-.07,.05,.04,.09,.07,.18,.15,.35,.31,.51,.48,.08,.08,.15,.16,.22,.25,.03,.04,.06,.08,.09,.11-.16-.19,0,0,.02,.03,.14,.19,.26,.39,.37,.6,.05,.1,.1,.2,.15,.3,.02,.04,.04,.09,.06,.14-.11-.23,0,0,.01,.04,.08,.22,.15,.45,.21,.69,.03,.11,.05,.22,.07,.34,0,.03,.02,.08,.02,.12-1.3,.27-2.51,.9-3.45,1.86-.95,.96-1.57,2.18-1.82,3.49-.01,0-.02,0-.04,0-.01,0-.04,0-.07,0-.02,0-.04,0-.05,0-.06-.01-.13-.02-.19-.04-.2-.04-.39-.09-.59-.15-.11-.03-.21-.07-.32-.11,0,0-.03-.01-.05-.02-.03-.02-.08-.04-.09-.04-.18-.08-.35-.18-.52-.28-.08-.05-.17-.1-.25-.16-.04-.03-.2-.15-.22-.16-.3-.25-.57-.52-.83-.83Zm-.55,10.71s.02,.04,0,0h0Zm8.86-.23c-.03,.09-.07,.19-.11,.28,.09-.24-.05,.1-.08,.17-.09,.18-.19,.35-.29,.52-.05,.08-.11,.16-.17,.24-.03,.04-.06,.08-.09,.12,.15-.21,0,0-.03,.03-.13,.15-.26,.29-.4,.43-.07,.07-.14,.14-.22,.2-.04,.03-.07,.06-.11,.1-.01,0-.05,.04-.08,.07-.01,.01-.03,.02-.04,.03-.05,.04-.1,.07-.15,.11-.08,.06-.16,.11-.25,.16-.18,.11-.37,.2-.56,.3-.02,.01-.04,.02-.05,.02-.01,0-.03,.01-.05,.02-.09,.04-.19,.07-.28,.1-.22,.07-.44,.13-.66,.17-.05,0-.1,.02-.15,.03,0,0-.03,0-.05,0-.03,0-.05,0-.07,0-.05,0-.1,0-.16,.01-.22,.02-.45,.02-.67,.01-.1,0-.21-.01-.31-.02-.03,0-.06,0-.09,0-.01,0-.02,0-.03,0-.23-.04-.45-.09-.67-.15-.17-.05-.33-.11-.49-.17,.06,.02-.13-.06-.18-.08-.11-.05-.22-.11-.33-.17-.17-.1-.34-.2-.5-.32,0,0-.02-.01-.02-.02,0,0-.04-.03-.06-.04-.01,0-.03-.02-.04-.03,.01,0,.02,.02,.03,.02,0,0,0,0,0,0-.09-.08-.19-.16-.28-.24-.14-.13-.28-.27-.41-.42-.05-.05-.09-.11-.14-.17,.02,.02-.1-.14-.14-.19-.12-.17-.23-.35-.33-.54-.05-.09-.09-.18-.13-.27-.01-.03-.03-.06-.04-.1,0-.01,0-.02-.02-.04-.07-.19-.13-.38-.19-.57-.03-.1-.05-.2-.07-.3-.01-.06-.03-.13-.04-.19,0-.01,0-.06-.02-.1,0-.02,0-.05,0-.06,0-.05,0-.1-.01-.16,0-.1-.01-.21-.01-.31,0-.22,0-.45,.02-.67,0-.03,0-.06,0-.09,0-.01,0-.02,0-.03,.02-.1,.04-.2,.06-.3,.05-.22,.11-.44,.18-.66,.03-.09,.07-.19,.11-.28-.09,.23,.02-.04,.05-.1,.1-.2,.21-.39,.33-.58,.07-.1,.14-.2,.21-.3,0,0,0,0,0,0,0,0-.01,.02-.02,.03,0-.01,.02-.02,.03-.03,.02-.02,.05-.06,.05-.06,.01-.02,.03-.03,.04-.05,.15-.18,.31-.35,.48-.51,.08-.08,.17-.15,.25-.22,0,0,.02-.01,.03-.03,.03-.02,.08-.06,.09-.07,.2-.14,.41-.27,.63-.39,.1-.05,.2-.1,.3-.15,0,0,.02,0,.03-.02,.04-.01,.09-.04,.11-.04,.22-.08,.45-.15,.69-.21,.11-.03,.22-.05,.34-.07,0,0,.04,0,.08-.01,.23,1.36,.85,2.62,1.82,3.62,.96,.99,2.2,1.63,3.53,1.9-.01,.08-.03,.16-.05,.24-.05,.2-.1,.39-.17,.58Zm12.13-2.28s0-.05,0-.05c0,0,0,.02,0,.05Zm-.71-1.9c.11,.18,.21,.36,.31,.55,.02,.05,.08,.18,.08,.18,.03,.07,.05,.13,.08,.2,.07,.21,.14,.43,.18,.66,.02,.1,.04,.2,.06,.3,0,.02,0,.04,0,.05,0,.03,0,.06,0,.07,.02,.24,.03,.47,.02,.71,0,.1,0,.21-.02,.31,0,.07,0,.37,0,.12,0,.21-.09,.47-.14,.67-.05,.19-.12,.38-.19,.57,0,0,0-.02,.01-.03,0,.01-.01,.03-.02,.04,0,.02-.02,.04-.03,.06,0,.01-.01,.02-.02,.04-.05,.1-.1,.2-.15,.3-.09,.17-.2,.34-.31,.5-.03,.04-.06,.08-.08,.12,0,0-.02,.03-.03,.05-.01,.02-.03,.03-.03,.04-.04,.05-.08,.09-.12,.14-.14,.16-.28,.31-.44,.45-.07,.07-.15,.13-.22,.19,0,0-.02,.01-.03,.03-.03,.02-.08,.06-.09,.07-.16,.11-.33,.22-.5,.32-.09,.05-.17,.1-.26,.14-.05,.02-.26,.11-.25,.11-.38,.14-.76,.25-1.15,.32,0,0-.02,0-.03,0-.03,0-.06,0-.09,0-.1,0-.21,.02-.31,.02-.22,0-.45,0-.67-.01-.05,0-.1,0-.16-.01-.01,0-.04,0-.07,0-.02,0-.04,0-.05,0-.05,0-.1-.02-.15-.03-.22-.04-.44-.1-.66-.17-.1-.03-.19-.07-.28-.1-.02,0-.04-.02-.05-.02-.01,0-.03-.01-.05-.02-.19-.09-.38-.19-.56-.3-.11-.06-.21-.13-.31-.2-.04-.03-.08-.06-.12-.09,0,0,0,0,0,0-.17-.16-.35-.3-.51-.47-.09-.09-.17-.18-.25-.27-.03-.04-.06-.08-.09-.11,0,0,0,0,0,0-.13-.19-.27-.38-.38-.58-.06-.1-.11-.2-.16-.3-.02-.05-.09-.19-.1-.21-.08-.21-.15-.42-.21-.64-.03-.11-.05-.22-.08-.33,0-.01,0-.02,0-.03,1.35-.25,2.61-.9,3.59-1.89,.98-1,1.62-2.28,1.85-3.64,.09,.02,.19,.05,.21,.05,.2,.04,.39,.1,.58,.16,.1,.03,.19,.07,.28,.1,0,0,0,0,0,0,.06,.03,.11,.05,.17,.08,.18,.09,.35,.18,.52,.29,.08,.05,.17,.11,.25,.16,.04,.03,.08,.06,.12,.09,0,0,0,0,0,0,.31,.28,.59,.56,.88,.88,.02,.03,.05,.07,.07,.1,.06,.08,.11,.16,.16,.25Zm1.09-8.6s0,.03,0,.03c0,.03-.01,.07-.02,.08-.02,.1-.04,.2-.06,.3-.05,.22-.12,.44-.19,.65-.02,.05-.08,.19-.08,.19-.03,.06-.06,.13-.09,.19-.1,.2-.21,.39-.33,.58-.05,.08-.11,.16-.16,.23,0,0-.11,.14-.15,.18-.15,.18-.32,.34-.49,.5-.07,.06-.14,.12-.22,.18,0,0-.17,.13-.22,.16-.18,.12-.38,.24-.57,.34-.11,.06-.22,.11-.34,.16,.23-.11-.11,.04-.18,.06-.23,.08-.46,.14-.69,.19-.08,.02-.17,.04-.25,.05-.02,0-.04,0-.05,0-.08,0-.16,.02-.23,.02-.01,0-.03,0-.04,0-.25-1.29-.84-2.48-1.76-3.44-.91-.95-2.06-1.57-3.32-1.87,0,0,0-.01,0-.02,0-.01,0-.04,0-.07,0-.02,0-.04,0-.05,.01-.06,.02-.13,.04-.19,.04-.21,.1-.42,.16-.62,.03-.1,.07-.19,.1-.28,0,0,.01-.03,.02-.05,.02-.03,.04-.08,.04-.09,.09-.19,.19-.38,.3-.56,.05-.08,.11-.17,.16-.25,.03-.04,.06-.08,.08-.12,0-.01,.02-.03,.03-.04,.28-.31,.56-.59,.87-.87,.03-.02,.07-.05,.1-.07,.08-.06,.16-.11,.25-.16,.19-.12,.38-.23,.58-.32,.04-.02,.08-.04,.12-.06,.09-.03,.18-.07,.27-.1,.22-.07,.43-.13,.66-.18,.1-.02,.2-.04,.3-.05,0,0,0,0,0,0,.05,0,.1-.01,.16-.01,.22-.02,.45-.02,.67-.02,.12,0,.23,.01,.35,.02,.01,0,.04,0,.07,0,.01,0,.03,0,.05,0,.21,.04,.42,.08,.63,.14,.18,.05,.35,.11,.53,.18,.02,.01,.14,.06,.18,.08,.11,.05,.22,.11,.33,.17,.17,.1,.34,.2,.5,.32,.03,.02,.06,.04,.08,.06,0,0,0,0,0,0,.09,.08,.19,.16,.28,.24,.14,.13,.28,.27,.41,.42,.06,.07,.13,.15,.19,.23-.16-.2,.07,.1,.11,.15,.11,.16,.21,.33,.31,.51,.05,.09,.09,.18,.13,.27,.02,.04,.04,.09,.06,.14-.11-.23,0,0,.01,.04,.07,.19,.13,.38,.18,.57,.03,.1,.05,.2,.07,.3,.01,.07,.1,.45,.04,.19,.1,.41,.05,.91,0,1.33Z"/><path class="cls-1" d="M3.11,15.57s-.03,.04-.05,.06c0,0,0,0,0,0,.04-.05,.05-.07,.05-.07Z"/><path class="cls-1" d="M3.91,22.29s0,0,0,0c.02,.01,.04,.03,.06,.04,.01,0,0,0-.06-.05Z"/><path class="cls-1" d="M3.83,2.99s0,0,0,0c.03-.02,.05-.04,.06-.04-.02,.01-.04,.03-.06,.04Z"/><path class="cls-1" d="M23.08,20.44s.02-.04,.03-.06c0,0,0,0,0,0,0,0,0,0,0,0-.04,.08-.04,.09-.03,.07Z"/><path class="cls-1" d="M22.56,38.61c-.22,2.7-.44,5.41-.66,8.11-.08,.97,.12,2.86-1.14,3.08-.74,.13-1.61,0-2.36,0H8.22c-1.04,0-2.15,.11-3.18,0-1.21-.13-1.15-1.26-1.22-2.2-.25-3.03-.49-6.06-.74-9.09-.05-.57-1.18-.46-1.14,.11,.24,2.93,.48,5.86,.71,8.79,.1,1.28,.06,2.8,1.62,3.19,.79,.2,1.77,.06,2.57,.06h10.86c1.03,0,2.08,.06,3.11,0,1.49-.08,2-1.13,2.11-2.44,.26-3.24,.53-6.47,.79-9.71,.04-.55-1.09-.46-1.14,.11Z"/></g></g></svg>