<?xml version="1.0" encoding="UTF-8"?><svg id="Capa_2" xmlns="http://www.w3.org/2000/svg" viewBox="0 0 173.66 50.81"><defs><style>.cls-1{fill:#383d4b;}</style></defs><g id="Capa_1-2"><g><path class="cls-1" d="M38.19,12.01c0-1.77-.19-3.39-.56-4.87-.37-1.48-.89-2.74-1.56-3.8-.66-1.06-1.45-1.88-2.36-2.46-.91-.58-1.91-.87-2.99-.87-.72,0-1.49,.14-2.31,.41-.82,.27-1.64,.69-2.45,1.24-.81,.56-1.59,1.26-2.33,2.11-.74,.85-1.4,1.84-1.96,2.98-.57,1.14-1.02,2.43-1.36,3.88-.34,1.44-.51,3.04-.51,4.8,0,1.04,.07,2.17,.2,3.4,.14,1.23,.45,2.5,.95,3.8,.49,1.31,1.23,2.61,2.2,3.91,.97,1.3,2.3,2.53,4,3.7l.65-.84c-.57-.4-1.17-.96-1.78-1.67-.61-.72-1.18-1.6-1.7-2.66-.52-1.05-.94-2.28-1.27-3.7-.33-1.41-.49-3.01-.49-4.8,0-2.41,.25-4.56,.74-6.46,.49-1.9,1.14-3.5,1.93-4.81,.79-1.31,1.67-2.3,2.64-2.99,.97-.69,1.93-1.03,2.87-1.03,.59,0,1.18,.2,1.76,.61,.58,.41,1.1,1,1.54,1.79,.45,.79,.81,1.77,1.09,2.94,.28,1.17,.42,2.53,.42,4.08,0,1.2-.09,2.5-.28,3.91-.18,1.41-.47,2.86-.85,4.35-.38,1.49-.87,2.99-1.46,4.5-.59,1.51-1.3,2.96-2.14,4.35-.84,1.4-1.79,2.7-2.86,3.9-1.07,1.2-2.27,2.25-3.61,3.15-1.34,.89-2.82,1.6-4.44,2.11-1.62,.51-3.39,.77-5.3,.77-1.56,0-3.06-.22-4.5-.67-1.44-.45-2.7-1.06-3.8-1.85-1.1-.79-1.98-1.72-2.63-2.8-.65-1.08-.98-2.24-.98-3.51,0-.69,.11-1.32,.33-1.91,.22-.59,.57-1.09,1.04-1.51,.47-.41,1.06-.74,1.78-.98s1.58-.36,2.58-.36,2.07,.15,3.25,.45c1.18,.3,2.39,.81,3.64,1.51,1.24,.7,2.5,1.62,3.76,2.75,1.26,1.13,2.46,2.52,3.61,4.16l1.03-.72c-1.04-1.47-2.17-2.8-3.4-4-1.23-1.2-2.55-2.22-3.96-3.06-1.41-.85-2.9-1.5-4.45-1.96-1.56-.46-3.17-.69-4.84-.69-.89,0-1.76,.11-2.61,.32-.85,.22-1.6,.57-2.26,1.06-.66,.49-1.19,1.15-1.59,1.96-.4,.81-.6,1.83-.6,3.04,0,1.29,.37,2.54,1.1,3.74,.73,1.2,1.75,2.27,3.04,3.19,1.29,.93,2.83,1.67,4.62,2.23,1.79,.56,3.73,.84,5.84,.84,2.41,0,4.66-.34,6.76-1.02,2.1-.68,4.02-1.63,5.77-2.85,1.75-1.22,3.31-2.67,4.68-4.34,1.37-1.67,2.53-3.51,3.48-5.51,.95-2,1.67-4.12,2.17-6.36,.49-2.24,.74-4.53,.74-6.88Z"/><path class="cls-1" d="M56.91,2.87c-.37-.27-.84-.41-1.4-.41-.72,0-1.52,.25-2.39,.74-.88,.49-1.79,1.18-2.74,2.06-.95,.88-1.91,1.92-2.9,3.12-.98,1.2-1.92,2.51-2.82,3.92-.9,1.41-1.75,2.9-2.55,4.46-.8,1.56-1.49,3.15-2.08,4.75-.59,1.6-1.06,3.2-1.4,4.79-.34,1.59-.51,3.11-.51,4.56,0,1.16,.14,2.16,.42,2.99,.28,.83,.65,1.51,1.1,2.05,.45,.53,.98,.93,1.58,1.17,.6,.25,1.22,.37,1.88,.37,.78,0,1.55-.2,2.31-.6,.76-.4,1.48-.9,2.17-1.51,.69-.61,1.32-1.26,1.91-1.97,.59-.71,1.1-1.38,1.53-2s.78-1.15,1.04-1.59c.26-.44,.42-.69,.47-.75l-.89-.67c-.27,.4-.59,.87-.96,1.41-.37,.54-.78,1.1-1.23,1.69-.45,.58-.94,1.16-1.45,1.72-.51,.57-1.04,1.07-1.58,1.52-.54,.45-1.09,.81-1.64,1.09-.55,.28-1.1,.42-1.64,.42-.81,0-1.44-.33-1.89-1-.45-.67-.67-1.7-.67-3.09,0-.46,0-.97-.01-1.52,0-.55,.05-1.13,.18-1.73,.29-.3,.57-.58,.84-.83,.27-.25,.57-.52,.89-.83,.32-.3,.69-.67,1.1-1.09,.41-.42,.92-.97,1.53-1.65,.61-.68,1.33-1.5,2.17-2.48,.84-.97,1.83-2.17,2.98-3.59,.57-.7,1.15-1.47,1.73-2.3,.58-.83,1.14-1.68,1.67-2.56,.53-.88,1.03-1.76,1.5-2.64,.46-.89,.87-1.73,1.21-2.54,.34-.81,.61-1.55,.81-2.24,.2-.69,.3-1.28,.3-1.77,0-.72-.19-1.21-.56-1.48Zm-1.28,4.19c-.37,.97-.88,2.05-1.53,3.23-.65,1.18-1.44,2.44-2.37,3.77-.93,1.33-1.94,2.7-3.05,4.12-1.11,1.41-2.3,2.84-3.57,4.28-1.27,1.44-2.58,2.87-3.94,4.27,.33-1.74,.85-3.52,1.56-5.34,.7-1.82,1.5-3.58,2.39-5.29,.89-1.71,1.85-3.31,2.86-4.81,1.01-1.5,1.99-2.81,2.94-3.94,.95-1.12,1.83-2.01,2.64-2.67,.81-.65,1.47-.98,1.96-.98,.18,0,.33,.11,.45,.32,.13,.22,.19,.39,.19,.51,0,.7-.18,1.54-.55,2.51Z"/><path class="cls-1" d="M55.09,37c.34-.34,.51-.75,.51-1.23s-.17-.87-.51-1.21c-.34-.34-.76-.51-1.26-.51-.46,0-.87,.17-1.21,.51s-.51,.75-.51,1.21,.17,.89,.51,1.23c.34,.34,.75,.51,1.21,.51,.49,0,.91-.17,1.26-.51Z"/><path class="cls-1" d="M116.26,18.9c.3,0,.61-.09,.91-.26,.3-.18,.58-.4,.83-.67,.25-.27,.45-.58,.61-.92,.16-.34,.24-.67,.24-.99s-.12-.58-.36-.84c-.24-.26-.53-.38-.86-.38s-.66,.11-.93,.33c-.27,.22-.5,.49-.69,.8-.19,.31-.33,.64-.43,.99-.1,.35-.14,.65-.14,.91,0,.29,.07,.53,.22,.73,.14,.2,.35,.3,.62,.3Z"/><path class="cls-1" d="M171.33,32.43c.87-1.11,1.65-2.23,2.33-3.36l-.81-.72c-1.21,1.93-2.42,3.52-3.61,4.77-1.2,1.25-2.42,2.21-3.66,2.88,.61-.73,1.09-1.62,1.46-2.66,.37-1.04,.55-2.23,.55-3.59,0-.93-.08-1.82-.25-2.69-.17-.87-.35-1.67-.54-2.42-.19-.74-.37-1.4-.54-1.97-.17-.57-.25-1.03-.25-1.36,0-.4,.04-.74,.13-1.03,.09-.29,.19-.54,.31-.75,.12-.22,.24-.41,.37-.57,.13-.17,.23-.32,.31-.47l-.96-.79c-.85,1.18-1.67,2.4-2.46,3.65-.8,1.25-1.51,2.39-2.14,3.42-.63,1.03-1.14,1.88-1.52,2.55s-.58,1.01-.6,1.03c-.62,.96-1.32,1.97-2.08,3.04-.77,1.07-1.54,2.06-2.31,2.97-.77,.91-1.54,1.66-2.29,2.26-.75,.6-1.43,.9-2.03,.9-.19,0-.37-.06-.53-.19-.16-.13-.24-.37-.24-.74,0-.48,.12-1.01,.36-1.59,.24-.58,.54-1.19,.91-1.83,.37-.64,.76-1.3,1.17-1.99,.41-.69,.81-1.38,1.17-2.09,.37-.71,.67-1.42,.91-2.13,.24-.71,.36-1.41,.36-2.09,0-.85-.12-1.54-.37-2.07-.25-.53-.55-.95-.9-1.26-.35-.3-.73-.51-1.12-.62-.4-.11-.75-.17-1.05-.17-.35,0-.74,.06-1.17,.17-.43,.11-.9,.3-1.41,.56-.51,.26-1.07,.62-1.67,1.06-.61,.45-1.26,1.01-1.96,1.7,.1-.45,.14-.88,.14-1.29,0-.53-.07-.99-.22-1.39-.14-.4-.34-.74-.59-1.02-.25-.28-.53-.49-.86-.63-.33-.14-.67-.22-1.02-.22-.65,0-1.27,.21-1.85,.63-.58,.42-1.18,1.02-1.79,1.78-.61,.77-1.25,1.68-1.91,2.74-.66,1.06-1.4,2.23-2.21,3.51-.27,.45-.55,.83-.84,1.14-.29,.31-.59,.56-.9,.75-.31,.19-.65,.33-1.02,.42-.37,.09-.77,.13-1.22,.13h-.22c-.06,0-.13,0-.19-.02,.29-.45,.54-.95,.75-1.52,.22-.57,.4-1.14,.55-1.72,.15-.58,.27-1.16,.35-1.73,.08-.57,.12-1.1,.12-1.58,0-.64-.06-1.24-.19-1.79-.13-.56-.31-1.04-.55-1.45-.24-.41-.53-.73-.89-.96-.35-.23-.75-.35-1.2-.35-.49,0-.95,.14-1.36,.41-.41,.27-.78,.64-1.09,1.11-.31,.47-.55,1.02-.73,1.64-.18,.62-.26,1.28-.26,1.99s.06,1.39,.18,2.06c.12,.67,.3,1.3,.54,1.88,.24,.58,.53,1.1,.89,1.55,.35,.45,.76,.82,1.22,1.09-.54,.77-1.12,1.49-1.72,2.17-.61,.68-1.24,1.26-1.89,1.76-.65,.49-1.32,.89-2.01,1.17-.69,.29-1.38,.43-2.08,.43-.91,0-1.59-.28-2.03-.83-.45-.55-.67-1.33-.67-2.33,0-1.12,.23-2.27,.68-3.46,.45-1.19,1.04-2.33,1.75-3.43,.71-1.1,1.5-2.11,2.37-3.04,.87-.93,1.73-1.69,2.57-2.3l-.77-1c-.73,.33-1.47,.77-2.2,1.29-.73,.53-1.44,1.12-2.13,1.77-.69,.65-1.32,1.36-1.91,2.12-.59,.76-1.1,1.54-1.54,2.36-.06,.11-.11,.22-.17,.33l-.06-.05c-.59,.91-1.18,1.81-1.77,2.7-.59,.89-1.19,1.69-1.81,2.38-.61,.69-1.23,1.26-1.85,1.69-.62,.43-1.26,.65-1.91,.65-.35,0-.62-.08-.81-.25-.19-.17-.29-.48-.29-.94,0-.51,.11-1.13,.33-1.87,.22-.73,.51-1.52,.87-2.36,.36-.84,.76-1.7,1.21-2.58,.45-.89,.89-1.73,1.32-2.54,.43-.81,.83-1.55,1.21-2.22,.37-.68,.67-1.22,.87-1.64l-.77-.33c-.73,.86-1.54,1.82-2.4,2.87-.87,1.05-1.67,2.15-2.42,3.29-.31,.48-.6,.96-.87,1.45-1.15,1.8-2.29,3.3-3.43,4.49-1.2,1.25-2.42,2.21-3.66,2.88,.61-.73,1.09-1.62,1.46-2.66,.37-1.04,.55-2.23,.55-3.59,0-.93-.08-1.82-.25-2.69-.17-.87-.35-1.67-.54-2.42-.19-.74-.37-1.4-.54-1.97-.17-.57-.25-1.03-.25-1.36,0-.4,.04-.74,.13-1.03,.09-.29,.19-.54,.31-.75,.12-.22,.24-.41,.37-.57,.13-.17,.23-.32,.31-.47l-.96-.79c-.85,1.18-1.67,2.4-2.46,3.65-.8,1.25-1.51,2.39-2.14,3.42-.63,1.03-1.14,1.88-1.52,2.55s-.58,1.01-.6,1.03c-.56,.83-1.18,1.72-1.88,2.67-.69,.95-1.4,1.82-2.13,2.62-.73,.8-1.44,1.46-2.15,1.99-.71,.53-1.36,.78-1.95,.77-.21,0-.36-.07-.45-.22s-.14-.33-.14-.55c0-.54,.2-1.28,.59-2.2,.39-.93,.92-2.01,1.58-3.27,.66-1.25,1.42-2.66,2.27-4.23,.85-1.57,1.74-3.27,2.67-5.08l-1.75-.86c-.45,.8-1.03,1.76-1.73,2.9-.71,1.13-1.5,2.32-2.36,3.57s-1.77,2.48-2.74,3.7c-.97,1.22-1.93,2.32-2.89,3.29-.97,.97-1.91,1.76-2.82,2.37-.92,.61-1.76,.91-2.52,.91-.7,0-1.18-.23-1.42-.69-.25-.46-.37-1.02-.37-1.67,0-.97,.22-2.03,.65-3.17,.43-1.14,.96-2.28,1.59-3.42,.63-1.14,1.3-2.25,2.01-3.31,.71-1.07,1.35-2.03,1.93-2.87l-1.03-.72c-.81,.77-1.67,1.64-2.57,2.63-.9,.99-1.72,2.03-2.46,3.13-.4,.59-.75,1.19-1.08,1.79l-.06-.05c-.27,.4-.59,.87-.96,1.41-.37,.54-.78,1.1-1.23,1.69-.45,.58-.94,1.16-1.45,1.72-.51,.57-1.04,1.07-1.58,1.52-.54,.45-1.09,.81-1.64,1.09-.55,.28-1.1,.42-1.64,.42-.81,0-1.44-.33-1.89-1-.45-.67-.67-1.7-.67-3.09,0-.46,0-.97-.01-1.52,0-.55,.05-1.13,.18-1.73,.29-.3,.57-.58,.84-.83,.27-.25,.57-.52,.89-.83,.32-.3,.69-.67,1.1-1.09,.41-.42,.93-.97,1.53-1.65,.61-.68,1.33-1.5,2.17-2.48,.84-.97,1.83-2.17,2.98-3.59,.57-.7,1.15-1.47,1.73-2.3,.58-.83,1.14-1.68,1.67-2.56,.53-.88,1.03-1.76,1.5-2.64,.46-.89,.87-1.73,1.21-2.54,.34-.81,.61-1.55,.81-2.24,.2-.69,.3-1.28,.3-1.77,0-.72-.19-1.21-.56-1.48-.37-.27-.84-.41-1.4-.41-.72,0-1.52,.25-2.39,.74-.88,.49-1.79,1.18-2.74,2.06-.95,.88-1.91,1.92-2.9,3.12-.98,1.2-1.92,2.51-2.82,3.92-.9,1.41-1.75,2.9-2.55,4.46-.8,1.56-1.49,3.15-2.08,4.75-.59,1.6-1.06,3.2-1.4,4.79-.34,1.59-.51,3.11-.51,4.56,0,1.16,.14,2.16,.42,2.99,.28,.83,.65,1.51,1.1,2.05,.45,.53,.98,.93,1.58,1.17,.6,.25,1.22,.37,1.88,.37,.78,0,1.55-.2,2.31-.6,.76-.4,1.48-.9,2.17-1.51,.69-.61,1.32-1.26,1.91-1.97,.28-.34,.54-.67,.79-.99-.05,.34-.07,.68-.07,1.02,0,.7,.1,1.34,.29,1.9,.19,.57,.47,1.04,.83,1.44,.36,.39,.78,.69,1.27,.91,.49,.22,1.03,.32,1.64,.32,.72,0,1.43-.15,2.13-.44,.7-.29,1.41-.7,2.12-1.22,.71-.52,1.42-1.14,2.14-1.87,.72-.73,1.44-1.52,2.18-2.38-.26,.56-.45,1.08-.59,1.58-.14,.49-.2,.95-.2,1.36,0,.35,.06,.69,.19,1,.13,.32,.3,.6,.53,.84,.22,.24,.5,.43,.83,.57,.33,.14,.7,.22,1.11,.22,.67,0,1.35-.19,2.03-.56,.69-.37,1.35-.85,1.99-1.44,.64-.58,1.24-1.22,1.82-1.93,.57-.7,1.08-1.37,1.53-2.01,.45-.64,.82-1.2,1.12-1.7,.3-.49,.5-.82,.6-.98,0-.02,.08-.16,.25-.44,.17-.28,.38-.63,.65-1.06,.26-.43,.56-.91,.89-1.44,.33-.53,.65-1.04,.98-1.56,.33-.51,.63-.98,.92-1.41s.53-.76,.74-.98v.05c0,.13,.02,.4,.06,.83,.04,.42,.08,.92,.13,1.48,.05,.57,.09,1.16,.13,1.78,.04,.62,.06,1.19,.06,1.7s-.03,1.08-.1,1.7c-.06,.62-.17,1.26-.32,1.91-.15,.65-.36,1.29-.61,1.9-.26,.61-.57,1.16-.93,1.64-.37,.48-.8,.87-1.29,1.16-.49,.3-1.06,.44-1.7,.44-.48,0-.88-.08-1.21-.24-.33-.16-.59-.34-.78-.55-.19-.21-.33-.42-.42-.63-.09-.22-.13-.37-.13-.47l-.86,.17c.19,1.13,.7,1.98,1.52,2.55,.82,.57,1.83,.85,3.03,.85,1.34,0,2.61-.28,3.8-.83,1.2-.55,2.31-1.27,3.35-2.15,.92-.79,1.78-1.67,2.57-2.64-.07,.41-.1,.82-.1,1.21,0,.91,.26,1.65,.77,2.23,.51,.57,1.24,.86,2.2,.86,1.02,0,1.96-.26,2.82-.79s1.65-1.19,2.37-2c.53-.6,1.03-1.23,1.48-1.9-.01,.19-.02,.38-.02,.57,0,.8,.12,1.52,.36,2.15,.24,.64,.57,1.19,1,1.65,.43,.46,.94,.82,1.54,1.06,.6,.25,1.25,.37,1.95,.37s1.43-.12,2.23-.35c.8-.23,1.6-.6,2.42-1.11,.81-.51,1.61-1.17,2.39-1.97,.78-.81,1.52-1.78,2.2-2.93,.26,.06,.55,.1,.89,.1,.91,0,1.77-.22,2.58-.65s1.6-1.19,2.37-2.27c.22-.33,.5-.77,.84-1.32,.33-.54,.69-1.12,1.08-1.72,.38-.61,.79-1.22,1.21-1.83,.42-.61,.84-1.16,1.26-1.65,.41-.49,.82-.89,1.21-1.2,.39-.31,.74-.47,1.04-.47,.29,0,.51,.07,.67,.2,.16,.14,.24,.42,.24,.85,0,.38-.09,.89-.26,1.52-.18,.63-.49,1.42-.96,2.38-.32,.64-.66,1.29-1.03,1.96-.37,.67-.75,1.34-1.16,2-.41,.66-.82,1.3-1.23,1.93-.41,.62-.82,1.2-1.22,1.75l-2.8,3.85,2.11,.86c.19-.24,.41-.52,.65-.85,.24-.33,.49-.67,.77-1.03,.27-.36,.54-.72,.81-1.09,.27-.37,.54-.73,.81-1.08,.62-.81,1.26-1.66,1.91-2.54,1.15-1.52,2.21-2.87,3.19-4.06,.98-1.19,1.89-2.19,2.72-3,.83-.81,1.58-1.43,2.25-1.85,.67-.42,1.26-.63,1.77-.63,.48,0,.85,.17,1.11,.5,.26,.33,.39,.75,.39,1.24,0,.43-.14,.94-.42,1.54-.28,.6-.63,1.25-1.04,1.95-.41,.7-.87,1.44-1.36,2.21-.49,.77-.95,1.54-1.36,2.31-.41,.77-.76,1.51-1.04,2.24-.28,.73-.42,1.4-.42,2.02,0,.38,.07,.75,.22,1.09,.14,.34,.34,.64,.59,.9,.25,.26,.55,.45,.9,.6,.35,.14,.74,.22,1.17,.22,.75,0,1.5-.22,2.24-.65,.74-.43,1.46-.98,2.17-1.64,.7-.66,1.36-1.39,1.97-2.18,.61-.79,1.17-1.55,1.66-2.27,.49-.73,.91-1.37,1.24-1.94,.33-.57,.57-.94,.69-1.14,0-.02,.08-.16,.25-.44,.17-.28,.38-.63,.65-1.06,.26-.43,.56-.91,.89-1.44,.33-.53,.65-1.04,.98-1.56,.33-.51,.63-.98,.92-1.41s.53-.76,.74-.98v.05c0,.13,.02,.4,.06,.83,.04,.42,.08,.92,.13,1.48,.05,.57,.09,1.16,.13,1.78,.04,.62,.06,1.19,.06,1.7s-.03,1.08-.1,1.7c-.06,.62-.17,1.26-.32,1.91-.15,.65-.36,1.29-.61,1.9-.26,.61-.57,1.16-.93,1.64-.37,.48-.8,.87-1.29,1.16-.49,.3-1.06,.44-1.7,.44-.48,0-.88-.08-1.21-.24-.33-.16-.59-.34-.78-.55-.19-.21-.33-.42-.42-.63-.09-.22-.13-.37-.13-.47l-.86,.17c.19,1.13,.7,1.98,1.52,2.55,.82,.57,1.83,.85,3.03,.85,1.34,0,2.61-.28,3.8-.83,1.2-.55,2.31-1.27,3.35-2.15,1.04-.89,1.99-1.88,2.86-2.99Zm-106.77-11.04c.7-1.82,1.5-3.58,2.39-5.29,.89-1.71,1.85-3.31,2.86-4.81,1.01-1.5,1.99-2.81,2.94-3.94,.95-1.12,1.83-2.01,2.64-2.67,.81-.65,1.47-.98,1.96-.98,.18,0,.33,.11,.45,.32,.13,.22,.19,.39,.19,.51,0,.7-.18,1.54-.55,2.51-.37,.97-.88,2.05-1.53,3.23-.65,1.18-1.44,2.44-2.37,3.77-.93,1.33-1.94,2.7-3.05,4.12-1.11,1.41-2.3,2.84-3.56,4.28-1.27,1.44-2.58,2.87-3.94,4.27,.33-1.74,.85-3.52,1.56-5.34Zm64.86,8.97c-.4-.26-.73-.6-1-1.04-.27-.44-.49-.91-.67-1.42-.18-.51-.3-1.04-.38-1.58-.08-.54-.12-1.04-.12-1.51,0-.51,.05-1,.16-1.47,.1-.47,.25-.89,.44-1.24,.19-.36,.42-.65,.69-.86,.27-.22,.57-.32,.89-.32,.24,0,.46,.08,.66,.25,.2,.17,.37,.4,.5,.69,.14,.3,.24,.64,.32,1.04,.08,.4,.12,.84,.12,1.32,0,.35-.03,.76-.08,1.23-.06,.47-.15,.98-.29,1.52-.14,.54-.3,1.1-.5,1.69-.2,.58-.44,1.15-.73,1.71Z"/><polygon class="cls-1" points="2.37 50.74 3.11 50.74 3.11 48.44 5.45 48.44 5.45 47.85 3.11 47.85 3.11 46.23 5.6 46.23 5.6 45.62 2.37 45.62 2.37 50.74"/><polygon class="cls-1" points="19.84 45.62 19.09 45.62 19.09 50.74 22.31 50.74 22.41 50.14 19.84 50.14 19.84 45.62"/><path class="cls-1" d="M37.71,45.55c-1.61,0-2.34,1.27-2.34,2.6,0,1.52,.75,2.66,2.28,2.66,1.61,0,2.34-1.19,2.34-2.66s-.75-2.6-2.27-2.6Zm-.03,4.67c-1.03,0-1.53-.91-1.53-2.08,0-1.1,.47-2,1.53-2s1.53,.89,1.53,2.01-.45,2.07-1.53,2.07Z"/><path class="cls-1" d="M57.31,46.96c0-.88-.68-1.33-1.65-1.33h-1.97v5.11h.75v-2.29h.91c.86,0,1.13,.27,1.13,.97v.11c0,.55,.02,1,.09,1.21h.74c-.06-.3-.08-.74-.08-1.21v-.1c0-.68-.23-1.1-.79-1.28,.43-.13,.88-.46,.88-1.2Zm-1.91,.92h-.97v-1.66h1.12c.61,0,.99,.26,.99,.8,0,.69-.48,.87-1.15,.87Z"/><rect class="cls-1" x="71.04" y="45.62" width=".75" height="5.11"/><path class="cls-1" d="M87.41,47.73c-.85-.24-1.13-.41-1.13-.88s.3-.73,.91-.73c.65,0,.95,.32,1.03,.82h.75c-.06-.74-.57-1.39-1.76-1.39-1.01,0-1.69,.52-1.69,1.36,0,.73,.43,1.1,1.59,1.43,.92,.27,1.2,.5,1.2,1.04s-.39,.83-1.03,.83-1.08-.32-1.18-.94h-.75c.08,.95,.76,1.52,1.89,1.52,1.23,0,1.84-.64,1.84-1.49,0-.71-.33-1.2-1.68-1.58Z"/><polygon class="cls-1" points="102.07 46.23 103.64 46.23 103.64 50.74 104.4 50.74 104.4 46.23 105.96 46.23 105.96 45.62 102.07 45.62 102.07 46.23"/><polygon class="cls-1" points="120.07 48.36 122.5 48.36 122.5 47.76 120.07 47.76 120.07 46.23 122.61 46.23 122.61 45.62 119.33 45.62 119.33 50.74 122.64 50.74 122.74 50.14 120.07 50.14 120.07 48.36"/><path class="cls-1" d="M139.87,46.96c0-.88-.68-1.33-1.65-1.33h-1.97v5.11h.75v-2.29h.91c.86,0,1.13,.27,1.13,.97v.11c0,.55,.02,1,.09,1.21h.74c-.06-.3-.08-.74-.08-1.21v-.1c0-.68-.23-1.1-.79-1.28,.43-.13,.88-.46,.88-1.2Zm-1.91,.92h-.97v-1.66h1.12c.61,0,.99,.26,.99,.8,0,.69-.48,.87-1.15,.87Z"/><rect class="cls-1" x="153.61" y="45.62" width=".75" height="5.11"/><path class="cls-1" d="M169.5,45.62c-.36,1.02-1.42,4.21-1.74,5.11h.75l.5-1.49h1.95l.52,1.49h.8l-1.82-5.11h-.96Zm-.33,3.02c.36-1.05,.63-1.84,.78-2.44h.01c.11,.42,.39,1.18,.82,2.44h-1.62Z"/></g></g></svg>